<svg xmlns="http://www.w3.org/2000/svg" viewBox="0 0 21 24" width="21" height="24"><style/><path id="E" d="M9.09 16.43h9.12c.22 0 .41.08.56.23.16.15.24.33.24.54v4.04c0 .21-.08.39-.24.54a.77.77 0 01-.56.23H2.79a.77.77 0 01-.56-.23.714.714 0 01-.24-.54V2.76c0-.21.08-.39.24-.54a.77.77 0 01.56-.23h15.18c.22 0 .41.08.57.23.15.15.23.33.23.54v4.03c0 .21-.08.39-.23.55a.81.81 0 01-.57.23H9.09v1.8h8.23c.22 0 .41.07.57.23.15.15.23.33.23.54v3.72c0 .21-.08.39-.23.54a.81.81 0 01-.57.23H9.09v1.8z" fill="#278ece"/></svg>