<svg xmlns="http://www.w3.org/2000/svg" viewBox="0 0 21 24" width="21" height="24">
	<style>
		tspan { white-space:pre }
		.shp0 { fill: #278ece } 
	</style>
	<path id="E" class="shp0" d="M9.09 16.43L18.21 16.43C18.43 16.43 18.62 16.51 18.77 16.66C18.93 16.81 19.01 16.99 19.01 17.2L19.01 21.24C19.01 21.45 18.93 21.63 18.77 21.78C18.62 21.93 18.43 22.01 18.21 22.01L2.79 22.01C2.57 22.01 2.38 21.93 2.23 21.78C2.07 21.63 1.99 21.45 1.99 21.24L1.99 2.76C1.99 2.55 2.07 2.37 2.23 2.22C2.38 2.07 2.57 1.99 2.79 1.99L17.97 1.99C18.19 1.99 18.38 2.07 18.54 2.22C18.69 2.37 18.77 2.55 18.77 2.76L18.77 6.79C18.77 7 18.69 7.18 18.54 7.34C18.38 7.49 18.19 7.57 17.97 7.57L9.09 7.57L9.09 9.37L17.32 9.37C17.54 9.37 17.73 9.44 17.89 9.6C18.04 9.75 18.12 9.93 18.12 10.14L18.12 13.86C18.12 14.07 18.04 14.25 17.89 14.4C17.73 14.55 17.54 14.63 17.32 14.63L9.09 14.63L9.09 16.43Z" />
</svg>