<svg xmlns="http://www.w3.org/2000/svg" viewBox="0 0 19 18" width="19" height="18">
	<style>
		tspan { white-space:pre }
		.shp0 { fill: #45b1f4 } 
	</style>
	<path id="search.png" class="shp0" d="M16.87 16.23L13.22 12.59C14.2 11.47 14.79 10 14.79 8.4C14.79 4.87 11.92 2 8.4 2C4.87 2 2 4.87 2 8.4C2 11.92 4.87 14.79 8.4 14.79C10 14.79 11.47 14.2 12.59 13.22L16.24 16.87C16.32 16.95 16.44 17 16.55 17C16.67 17 16.78 16.96 16.87 16.87C17.04 16.69 17.04 16.41 16.87 16.23ZM2.89 8.4C2.89 5.36 5.36 2.9 8.39 2.9C11.43 2.9 13.89 5.37 13.89 8.4C13.89 11.43 11.43 13.9 8.39 13.9C5.36 13.9 2.89 11.43 2.89 8.4Z" />
</svg>