<?xml version="1.0" encoding="utf-8"?><svg viewBox="0 0 21 24" xmlns="http://www.w3.org/2000/svg" xmlns:xlink="http://www.w3.org/1999/xlink"><style>:root>svg{display:none}:root>svg:target{display:block}</style><svg viewBox="0 0 21 24" id="logo" xmlns="http://www.w3.org/2000/svg"><style>.ashp0{fill:#278ece}</style><path id="aE" class="ashp0" d="M9.09 16.43h9.12c.22 0 .41.08.56.23.16.15.24.33.24.54v4.04c0 .21-.08.39-.24.54a.77.77 0 01-.56.23H2.79a.77.77 0 01-.56-.23.714.714 0 01-.24-.54V2.76c0-.21.08-.39.24-.54a.77.77 0 01.56-.23h15.18c.22 0 .41.08.57.23.15.15.23.33.23.54v4.03c0 .21-.08.39-.23.55a.81.81 0 01-.57.23H9.09v1.8h8.23c.22 0 .41.07.57.23.15.15.23.33.23.54v3.72c0 .21-.08.39-.23.54a.81.81 0 01-.57.23H9.09v1.8z"/></svg><svg viewBox="0 0 19 18" id="search" xmlns="http://www.w3.org/2000/svg"><style>.bshp0{fill:#45b1f4}</style><path id="bsearch.png" class="bshp0" d="M16.87 16.23l-3.65-3.64a6.346 6.346 0 001.57-4.19c0-3.53-2.87-6.4-6.39-6.4C4.87 2 2 4.87 2 8.4c0 3.52 2.87 6.39 6.4 6.39 1.6 0 3.07-.59 4.19-1.57l3.65 3.65c.08.08.2.13.31.13.12 0 .23-.04.32-.13.17-.18.17-.46 0-.64zM2.89 8.4c0-3.04 2.47-5.5 5.5-5.5 3.04 0 5.5 2.47 5.5 5.5s-2.46 5.5-5.5 5.5a5.51 5.51 0 01-5.5-5.5z"/></svg></svg>